<svg t="1683258207438" class="icon" viewBox="0 0 1024 1024" version="1.1" xmlns="http://www.w3.org/2000/svg" p-id="7786" data-spm-anchor-id="a313x.7781069.0.i5" width="200" height="200"><path d="M510.9 60.7c-245.6 0-446.7 199.8-446.7 446.7C64.2 753 263.9 954 510.8 954s446.6-199.7 446.6-446.6c0.1-245.6-199.6-446.7-446.5-446.7z m-24.7 574c0 8.8-7.2 16-16 16h-94.9c-8.8 0-16-7.2-16-16V389.3c0-8.8 7.2-16 16-16h94.9c8.8 0 16 7.2 16 16v245.4z m178.5 0c0 8.8-7.2 16-16 16h-94.9c-8.8 0-16-7.2-16-16V389.3c0-8.8 7.2-16 16-16h94.9c8.8 0 16 7.2 16 16v245.4z" p-id="7787" fill="#dbdbdb"></path></svg>
